<svg width="20" height="21" viewBox="0 0 20 21" fill="none" xmlns="http://www.w3.org/2000/svg">
    <g clip-path="url(#2efvgohcfa)">
        <path d="M20 10.25c0-5.523-4.477-10-10-10s-10 4.477-10 10c0 4.991 3.657 9.128 8.438 9.878v-6.987h-2.54V10.25h2.54V8.047c0-2.506 1.492-3.89 3.777-3.89 1.093 0 2.238.195 2.238.195v2.46h-1.26c-1.243 0-1.63.771-1.63 1.563v1.875h2.773l-.443 2.89h-2.33v6.988c4.78-.75 8.437-4.887 8.437-9.878z" fill="#98A2B3"/>
    </g>
    <defs>
        <clipPath id="2efvgohcfa">
            <path fill="#fff" transform="translate(0 .25)" d="M0 0h20v20H0z"/>
        </clipPath>
    </defs>
</svg>
