<svg width="20" height="21" viewBox="0 0 20 21" fill="none" xmlns="http://www.w3.org/2000/svg">
    <g clip-path="url(#nf6nwpbmfa)" fill="#98A2B3">
        <path d="M10 2.05c2.672 0 2.988.013 4.04.06.976.042 1.503.206 1.855.343.464.18.8.399 1.148.746.352.352.566.684.746 1.149.137.351.3.882.344 1.855.047 1.055.058 1.371.058 4.04 0 2.671-.011 2.987-.058 4.038-.043.977-.207 1.504-.344 1.856-.18.465-.398.8-.746 1.148a3.077 3.077 0 0 1-1.148.746c-.352.137-.883.301-1.856.344-1.055.047-1.371.059-4.039.059-2.672 0-2.988-.012-4.04-.059-.976-.043-1.503-.207-1.855-.344-.464-.18-.8-.398-1.148-.746a3.076 3.076 0 0 1-.746-1.148c-.137-.352-.3-.883-.344-1.856-.047-1.054-.058-1.37-.058-4.039 0-2.672.011-2.988.058-4.039.043-.976.207-1.504.344-1.855.18-.465.398-.801.746-1.149a3.076 3.076 0 0 1 1.148-.746c.352-.137.883-.3 1.856-.344 1.05-.046 1.367-.058 4.039-.058zm0-1.8c-2.715 0-3.055.012-4.121.059-1.063.046-1.793.218-2.426.464A4.88 4.88 0 0 0 1.68 1.93 4.9 4.9 0 0 0 .523 3.7C.277 4.335.105 5.061.06 6.124.012 7.195 0 7.535 0 10.25s.012 3.055.059 4.121c.046 1.063.218 1.793.464 2.426.258.66.598 1.219 1.157 1.773a4.888 4.888 0 0 0 1.77 1.153c.636.246 1.362.418 2.425.465 1.066.046 1.406.058 4.121.058 2.715 0 3.055-.012 4.121-.058 1.063-.047 1.793-.22 2.426-.465a4.888 4.888 0 0 0 1.77-1.153 4.888 4.888 0 0 0 1.152-1.77c.246-.636.418-1.363.465-2.425.047-1.066.058-1.406.058-4.121 0-2.715-.011-3.055-.058-4.121-.047-1.063-.22-1.793-.465-2.426A4.683 4.683 0 0 0 18.32 1.93 4.889 4.889 0 0 0 16.55.777C15.915.531 15.188.36 14.126.312 13.055.263 12.715.25 10 .25z"/>
        <path d="M10 5.113a5.138 5.138 0 0 0-5.137 5.137 5.138 5.138 0 0 0 10.273 0c0-2.836-2.3-5.137-5.136-5.137zm0 8.469a3.333 3.333 0 1 1 .001-6.665A3.333 3.333 0 0 1 10 13.582zM16.54 4.91a1.2 1.2 0 1 1-2.4 0 1.2 1.2 0 0 1 2.4 0z"/>
    </g>
    <defs>
        <clipPath id="nf6nwpbmfa">
            <path fill="#fff" transform="translate(0 .25)" d="M0 0h20v20H0z"/>
        </clipPath>
    </defs>
</svg>
