<svg width="149" height="30" viewBox="0 0 149 30" fill="none" xmlns="http://www.w3.org/2000/svg">
<path d="M10.5476 28.8468C4.31829 26.6917 0.36225 20.9052 0.686999 14.4397C0.864136 11.3103 1.63173 9.09613 3.40309 6.61623C6.00109 2.95541 10.6362 0.564069 15.0941 0.534546C18.0168 0.534546 22.3862 2.18782 24.748 4.22489L25.988 5.2877L23.0652 7.64952L20.113 10.0113L19.1682 9.30279C16.4226 7.2362 12.6437 7.56095 10.0752 10.0704C7.21152 12.8455 7.32961 17.7463 10.3114 20.3443C11.7875 21.6433 12.998 22.0861 15.1531 22.0861C17.4854 22.0861 19.1682 21.289 20.6444 19.5177C22.5043 17.2739 24.2166 16.8016 26.047 18.0415C27.966 19.3405 28.2907 21.1709 26.9622 23.2966C25.368 25.806 22.2091 28.0497 18.9616 29.0535C16.895 29.6735 12.6437 29.5849 10.5476 28.8468Z" fill="#0E4E9A"/>
<path d="M14.356 17.6873C14.0608 17.1558 12.437 12.0779 12.437 11.6056C12.437 10.5723 13.4408 11.3989 14.3265 13.1408C14.8284 14.1445 15.3598 15.0007 15.4779 15.0007C15.7141 15.0007 21.8843 10.2771 27.8774 5.49437C30.5935 3.30969 31.3316 2.98494 31.3316 3.90015C31.3316 4.1068 28.3203 6.94098 24.6299 10.159C20.9101 13.3769 17.4264 16.4473 16.8655 16.9787C15.8617 17.9234 14.7103 18.2482 14.356 17.6873Z" fill="#0E4E9A"/>
<path d="M48.7358 15.0772C48.7233 14.5093 48.7959 13.9514 48.936 13.411C49.1036 12.768 49.3638 12.1576 49.734 11.5997C50.6197 10.2662 51.8581 9.42063 53.3767 8.9578C54.2598 8.6876 55.168 8.61005 56.0811 8.65008C56.7116 8.67759 57.332 8.78267 57.9424 8.9603C58.8506 9.22549 59.6762 9.65079 60.3967 10.2537C60.9821 10.7416 61.465 11.3245 61.8377 11.995C62.2505 12.738 62.4957 13.5436 62.5683 14.3792C62.6809 15.7277 62.4757 17.0311 61.7752 18.217C61.2098 19.1726 60.4342 19.9232 59.4585 20.4661C58.643 20.9214 57.7748 21.1991 56.8517 21.3242C55.5007 21.5093 54.1847 21.4017 52.9013 20.9389C52.1533 20.6687 51.4578 20.2935 50.8624 19.7706C49.7991 18.8399 49.0961 17.6866 48.8609 16.2781C48.7934 15.8828 48.7784 15.4775 48.7383 15.0772H48.7358ZM58.4303 14.9521C58.3953 14.7495 58.3552 14.4542 58.2902 14.1615C58.1676 13.6212 57.8949 13.1483 57.4821 12.7855C56.8366 12.2226 56.0811 11.9675 55.2155 12.1251C54.605 12.2352 54.0772 12.5028 53.6719 12.9832C53.0489 13.7237 52.8388 14.5718 52.9639 15.53C53.129 16.8084 54.0822 17.8242 55.3856 17.9468C56.3838 18.0393 57.2094 17.6866 57.8299 16.911C58.2577 16.3756 58.3903 15.7227 58.4328 14.9496L58.4303 14.9521Z" fill="#0E4E9A"/>
<path d="M68.8703 10.684C69.1255 10.3938 69.3406 10.1286 69.5758 9.88597C70.2938 9.15044 71.172 8.77517 72.2002 8.6826C72.8907 8.62006 73.5637 8.66008 74.2317 8.8227C75.6202 9.16044 76.4808 10.0411 76.8636 11.4046C76.9736 11.7948 77.0437 12.1901 77.0512 12.5979C77.0612 13.0332 77.0962 13.4685 77.0962 13.9039C77.1012 15.8828 77.0987 17.8592 77.0962 19.8381C77.0962 20.2384 76.9686 20.5837 76.6734 20.8689C76.4182 21.114 76.118 21.2316 75.7753 21.2366C75.3074 21.2441 74.8371 21.2241 74.3693 21.2416C73.5537 21.2717 72.9207 20.6412 72.9307 19.7931C72.9457 18.5447 72.9357 17.2938 72.9357 16.0454C72.9357 15.3374 72.9357 14.6294 72.9357 13.9214C72.9357 13.7763 72.9207 13.6312 72.8932 13.4886C72.7456 12.7755 72.3153 12.4728 71.6073 12.4903C71.0694 12.5028 70.5715 12.653 70.1412 13.0007C69.766 13.3059 69.5258 13.6987 69.3582 14.139C69.1805 14.6094 69.098 15.0947 69.1005 15.6001C69.108 16.9961 69.1055 18.3896 69.1005 19.7856C69.1005 20.1909 68.9929 20.5611 68.6877 20.8564C68.435 21.0965 68.1373 21.2291 67.7945 21.2366C67.2742 21.2466 66.7513 21.2516 66.2309 21.2366C65.5579 21.2166 64.98 20.6937 64.9375 19.9657C64.935 19.9132 64.9375 19.8606 64.9375 19.8106C64.9375 16.6458 64.9375 13.4811 64.9375 10.3163C64.9375 9.90098 65.0601 9.55072 65.3703 9.25801C65.6205 9.02285 65.9107 8.91277 66.2409 8.90276C66.6988 8.89025 67.1591 8.89025 67.6169 8.90276C68.3975 8.92027 68.9829 9.55573 68.8778 10.3413C68.8653 10.4439 68.8778 10.5489 68.8778 10.6865L68.8703 10.684Z" fill="#0E4E9A"/>
<path d="M94.899 15.8252C94.9866 16.3806 95.2443 16.816 95.6245 17.1812C96.2825 17.8142 97.0931 18.0118 97.9762 17.9543C98.6242 17.9117 99.2346 17.7166 99.8201 17.4289C100.09 17.2963 100.373 17.2037 100.686 17.2062C101.038 17.2087 101.324 17.3388 101.504 17.629C101.724 17.9793 101.939 18.3371 102.102 18.7173C102.399 19.4103 102.187 19.9757 101.524 20.346C100.951 20.6637 100.345 20.9064 99.715 21.089C98.6317 21.4018 97.5284 21.4793 96.4176 21.3667C95.1467 21.2366 93.9784 20.8013 92.9701 19.9957C92.1871 19.3703 91.5941 18.5972 91.2014 17.6716C90.9187 17.0086 90.7535 16.3281 90.6785 15.6076C90.5659 14.5218 90.716 13.4761 91.1013 12.4703C91.6417 11.0618 92.5724 9.98855 93.9483 9.31306C94.6664 8.96031 95.4094 8.73765 96.2075 8.69262C96.5077 8.67511 96.8079 8.64759 97.1081 8.64759C98.1339 8.64008 99.1071 8.86024 100.003 9.3631C100.826 9.82593 101.451 10.4914 101.909 11.3195C102.307 12.04 102.507 12.8181 102.617 13.6237C102.64 13.7863 102.652 13.9514 102.67 14.1165C102.745 14.8671 102.384 15.5976 101.601 15.7902C101.481 15.8202 101.356 15.8252 101.231 15.8278C99.2422 15.8278 97.2532 15.8278 95.2618 15.8278H94.9015L94.899 15.8252ZM98.5216 13.3635C98.6017 13.1233 98.5041 12.9332 98.4516 12.738C98.2614 12.03 97.4609 11.4971 96.6203 11.6172C95.7646 11.7398 95.1267 12.5404 95.0191 13.366H98.5241L98.5216 13.3635Z" fill="#0E4E9A"/>
<path d="M132.078 15.8252C132.313 17.0286 133.242 17.7591 134.387 17.9268C135.296 18.0594 136.139 17.8292 136.949 17.4514C137.272 17.3013 137.597 17.1787 137.963 17.2087C138.235 17.2313 138.483 17.3238 138.628 17.554C138.868 17.9393 139.078 18.3421 139.293 18.7398C139.341 18.8299 139.364 18.935 139.379 19.0376C139.469 19.6005 139.281 19.9907 138.783 20.2935C138.175 20.6612 137.515 20.9014 136.834 21.0965C135.959 21.3467 135.063 21.4318 134.157 21.3993C132.889 21.3517 131.695 21.0365 130.63 20.3385C129.356 19.5029 128.521 18.337 128.09 16.876C127.87 16.1305 127.785 15.3724 127.833 14.6019C127.913 13.3184 128.256 12.1126 129.031 11.0643C129.529 10.3913 130.139 9.83844 130.88 9.43565C131.58 9.05787 132.321 8.79769 133.112 8.71012C133.594 8.65759 134.087 8.62756 134.573 8.65008C135.791 8.70512 136.909 9.04787 137.87 9.84344C138.741 10.564 139.278 11.4821 139.579 12.5579C139.721 13.0683 139.784 13.5861 139.824 14.114C139.854 14.4893 139.819 14.8345 139.629 15.1523C139.371 15.5851 138.986 15.8202 138.473 15.8202C136.461 15.8202 134.452 15.8202 132.441 15.8202H132.078V15.8252ZM135.728 13.3635C135.733 12.3778 135.085 11.6097 134.1 11.5897C133.024 11.5672 132.278 12.4378 132.226 13.3635H135.728Z" fill="#0E4E9A"/>
<path d="M120.37 17.3113C120.425 17.1262 120.477 17.0061 120.495 16.8835C120.64 15.8853 120.96 14.9321 121.233 13.9664C121.568 12.7806 121.918 11.5997 122.264 10.4189C122.324 10.2087 122.379 9.99859 122.459 9.79594C122.684 9.22303 123.054 8.94783 123.755 8.9103C124.358 8.87778 124.963 8.89529 125.566 8.9078C125.846 8.9128 126.116 8.98536 126.339 9.183C126.662 9.47071 126.674 9.83597 126.589 10.2112C126.514 10.534 126.407 10.8467 126.299 11.1619C125.909 12.3077 125.511 13.4536 125.116 14.5994C124.645 15.9629 124.178 17.3239 123.71 18.6873C123.572 19.0901 123.455 19.5004 123.304 19.8982C123.214 20.1384 123.104 20.3811 122.954 20.5862C122.689 20.9515 122.274 21.054 121.851 21.0615C120.893 21.0766 119.935 21.0966 118.976 21.0565C118.271 21.0265 117.848 20.8214 117.578 20.0458C117.105 18.6848 116.642 17.3214 116.172 15.9604C115.727 14.6795 115.271 13.401 114.826 12.1201C114.618 11.5247 114.416 10.9268 114.218 10.3263C114.173 10.1912 114.148 10.0436 114.145 9.90102C114.133 9.39065 114.401 9.06291 114.906 8.96534C115.066 8.93282 115.231 8.9128 115.396 8.9103C115.874 8.9028 116.354 8.9103 116.832 8.9078C117.728 8.9028 118.153 9.3231 118.366 10.0436C118.709 11.2145 119.041 12.3878 119.382 13.5586C119.597 14.2942 119.827 15.0272 120.027 15.7677C120.157 16.2531 120.245 16.7509 120.37 17.3189V17.3113Z" fill="#0E4E9A"/>
<path d="M42.6414 21.4343C41.6307 21.4243 40.655 21.2592 39.7218 20.8739C39.0464 20.5962 38.4309 20.2209 37.8855 19.7256C36.8498 18.7849 36.2268 17.6241 35.9816 16.2581C35.9116 15.8628 35.8491 15.4575 35.8591 15.0572C35.8766 14.2717 35.9741 13.4936 36.2618 12.7481C36.5996 11.8724 37.0849 11.0994 37.7604 10.4514C38.4434 9.79595 39.239 9.3206 40.1396 9.02789C40.7126 8.84276 41.298 8.73268 41.9034 8.68014C42.8016 8.60259 43.6847 8.65262 44.5603 8.84776C45.2933 9.01288 45.9738 9.3156 46.6093 9.72089C47.1822 10.0862 47.2998 10.6365 47.0446 11.2395C46.852 11.6973 46.5643 12.1101 46.2265 12.4804C45.9863 12.7456 45.6786 12.8381 45.3284 12.7481C45.1282 12.6955 44.9281 12.633 44.7455 12.5429C44.2076 12.2802 43.6372 12.0851 43.0492 12.0801C41.5457 12.0651 40.4198 12.8181 40.1021 14.3867C39.8769 15.49 40.2247 16.4582 41.0403 17.2363C41.4481 17.6241 41.9584 17.8342 42.5138 17.9218C43.3119 18.0469 44.06 17.8743 44.7755 17.524C45.1007 17.3664 45.4309 17.2138 45.7662 17.0787C46.1865 16.9086 46.7194 17.1137 46.9746 17.574C47.1297 17.8542 47.2898 18.1344 47.4199 18.4272C47.55 18.7199 47.6225 19.0226 47.555 19.3603C47.4899 19.6806 47.3273 19.9057 47.0696 20.0858C46.1039 20.7538 45.0382 21.1566 43.8773 21.3092C43.467 21.3643 43.0542 21.3893 42.6414 21.4293V21.4343Z" fill="#0E4E9A"/>
<path d="M84.0112 21.4043C82.4426 21.4168 81.0916 21.0215 79.8357 20.276C79.5154 20.0858 79.2953 19.8131 79.2603 19.4404C79.2428 19.2427 79.2653 19.0076 79.3603 18.8374C79.583 18.4297 79.8382 18.0344 80.1209 17.6666C80.3861 17.3239 80.7764 17.2288 81.1892 17.3514C81.4944 17.4414 81.7946 17.5665 82.0848 17.6991C82.6652 17.9643 83.2706 18.1419 83.9011 18.1845C84.1888 18.2045 84.514 18.147 84.7767 18.0269C85.2296 17.8192 85.207 17.3514 84.8943 17.1237C84.7117 16.9911 84.5115 16.871 84.3014 16.796C83.6684 16.5658 83.023 16.3682 82.3875 16.1455C81.7871 15.9379 81.2192 15.6652 80.7113 15.2724C80.0984 14.797 79.6756 14.1941 79.5154 13.4386C79.3804 12.7956 79.3728 12.1426 79.5555 11.4972C79.8257 10.5465 80.4261 9.86099 81.2792 9.38815C82.0423 8.96535 82.8604 8.72267 83.736 8.69015C83.9536 8.68264 84.1688 8.65012 84.3865 8.64512C85.2846 8.6201 86.1652 8.75019 87.0133 9.0354C87.4236 9.173 87.8164 9.37064 88.1992 9.57078C88.4844 9.72089 88.6145 9.98608 88.627 10.3163C88.6395 10.6466 88.5845 10.9543 88.4219 11.2445C88.3143 11.4346 88.2117 11.6273 88.1266 11.8274C87.8539 12.4704 87.3136 12.593 86.7707 12.4554C86.4004 12.3628 86.0451 12.2077 85.6799 12.0951C85.0519 11.9025 84.414 11.7774 83.7585 11.9425C83.6509 11.97 83.5383 12.0175 83.4558 12.0876C83.2056 12.3027 83.2056 12.6705 83.4858 12.8657C83.7285 13.0333 84.0062 13.1634 84.2839 13.2634C84.7617 13.4361 85.2571 13.5612 85.7374 13.7238C86.4379 13.9589 87.1209 14.2266 87.7088 14.692C88.4544 15.2849 88.8697 16.0429 88.9447 17.0011C88.9848 17.504 88.9572 17.9918 88.8196 18.4697C88.5219 19.5054 87.8489 20.2435 86.9108 20.7413C85.9751 21.2392 84.9619 21.4218 84.0087 21.3993L84.0112 21.4043Z" fill="#0E4E9A"/>
<path d="M108.924 11.4671C109.212 10.9918 109.452 10.4989 109.81 10.0761C110.245 9.56577 110.728 9.11294 111.378 8.88778C111.704 8.7752 112.051 8.72016 112.392 8.78521C112.92 8.88278 113.142 9.12045 113.192 9.71087C113.245 10.3313 113.225 10.9593 113.2 11.5822C113.177 12.1426 112.744 12.5354 112.309 12.6705C112.161 12.7155 112.006 12.7456 111.851 12.7481C110.923 12.7606 110.22 13.1659 109.735 13.9464C109.342 14.5794 109.159 15.2774 109.147 16.0154C109.127 17.2838 109.117 18.5522 109.112 19.8206C109.112 20.2134 108.802 20.7863 108.314 20.944C108.119 21.0065 107.911 21.049 107.708 21.054C107.188 21.069 106.668 21.069 106.145 21.0565C105.499 21.0415 105.084 20.7213 104.879 20.1834C104.836 20.0708 104.816 19.9432 104.816 19.8206C104.814 16.5933 104.809 13.366 104.816 10.1412C104.816 9.42817 105.359 8.94282 106.047 8.90779C106.597 8.87777 107.153 8.87527 107.703 8.90779C108.376 8.95033 108.897 9.42567 108.922 10.1587C108.937 10.594 108.924 11.0318 108.924 11.4671Z" fill="#0E4E9A"/>
<path d="M144.735 2.57072C146.629 2.46314 148.455 4.18688 148.393 6.3084C148.335 8.22979 146.774 9.89849 144.69 9.88848C142.673 9.88098 140.957 8.18726 141.047 6.0282C141.125 4.22691 142.748 2.45814 144.732 2.57072H144.735ZM147.712 6.22585C147.78 4.60968 146.426 3.20367 144.735 3.20367C143.034 3.20367 141.705 4.50211 141.703 6.22585C141.7 7.93207 143.079 9.18297 144.685 9.223C146.349 9.26553 147.8 7.77196 147.715 6.22585H147.712Z" fill="#0E4E9A"/>
<path d="M145.493 6.62861C145.666 6.93634 145.826 7.22654 145.988 7.51425C146.151 7.79696 146.038 7.98709 145.708 8.01461C145.42 8.03713 145.233 7.91704 145.11 7.67186C145 7.4492 144.897 7.22154 144.79 6.99638C144.745 6.90381 144.695 6.81625 144.647 6.72618H144.342C144.335 6.81625 144.322 6.89631 144.322 6.97636C144.32 7.19402 144.332 7.41418 144.317 7.63184C144.295 7.94206 143.937 8.1372 143.667 7.98709C143.604 7.95207 143.562 7.8645 143.529 7.78945C143.506 7.73441 143.519 7.66686 143.519 7.60432C143.519 6.7512 143.519 5.89809 143.519 5.04498C143.519 4.68722 143.582 4.62467 143.934 4.62217C144.237 4.62217 144.537 4.61467 144.84 4.62217C145.1 4.63218 145.348 4.66971 145.565 4.84983C146.063 5.26513 146.008 6.03068 145.671 6.45599C145.626 6.51353 145.565 6.55856 145.493 6.62861ZM144.335 6.12075C144.517 6.17829 144.67 6.10324 144.817 6.0482C144.94 6.00316 145.013 5.80802 144.988 5.67793C144.96 5.53783 144.852 5.46278 144.73 5.44026C144.605 5.41774 144.472 5.43526 144.337 5.43526V6.11825L144.335 6.12075Z" fill="#0E4E9A"/>
</svg>
