<svg width="35" height="24" viewBox="0 0 35 24" fill="none" xmlns="http://www.w3.org/2000/svg">
    <rect x=".525" y=".5" width="33" height="23" rx="3.5" fill="#fff"/>
    <path fill-rule="evenodd" clip-rule="evenodd" d="M10.776 15.858h-2.06L7.173 9.792c-.073-.279-.229-.525-.458-.642a6.573 6.573 0 0 0-1.888-.641v-.234h3.318c.458 0 .802.35.859.758l.801 4.376 2.059-5.134h2.003l-3.09 7.583zm4.234 0h-1.945l1.602-7.583h1.945l-1.602 7.583zm4.119-5.482c.057-.409.4-.642.801-.642a3.535 3.535 0 0 1 1.888.35l.344-1.633a4.8 4.8 0 0 0-1.774-.35c-1.888 0-3.262 1.05-3.262 2.507 0 1.11.973 1.692 1.66 2.042.744.35 1.03.584.973.934 0 .524-.573.758-1.144.758a4.789 4.789 0 0 1-2.003-.467l-.343 1.634c.687.29 1.43.408 2.117.408 2.117.058 3.432-.992 3.432-2.567 0-1.983-2.69-2.1-2.69-2.974zm9.497 5.482-1.544-7.583h-1.66a.862.862 0 0 0-.8.583l-2.861 7h2.003l.4-1.108h2.46l.229 1.108h1.773zm-2.917-5.54.571 2.857h-1.602l1.03-2.858z" fill="#172B85"/>
    <rect x=".525" y=".5" width="33" height="23" rx="3.5" stroke="#F2F4F7"/>
</svg>
