<svg width="20" height="21" viewBox="0 0 20 21" fill="none" xmlns="http://www.w3.org/2000/svg">
    <path d="M6.292 18.375c7.545 0 11.673-6.253 11.673-11.673 0-.176-.004-.356-.012-.532A8.332 8.332 0 0 0 20 4.046a8.09 8.09 0 0 1-2.355.645 4.125 4.125 0 0 0 1.804-2.27 8.247 8.247 0 0 1-2.605.996A4.108 4.108 0 0 0 9.85 7.16a11.654 11.654 0 0 1-8.456-4.284 4.108 4.108 0 0 0 1.27 5.475 4.108 4.108 0 0 1-1.86-.512v.051a4.101 4.101 0 0 0 3.293 4.023 4.078 4.078 0 0 1-1.851.07 4.112 4.112 0 0 0 3.831 2.852A8.229 8.229 0 0 1 0 16.532a11.64 11.64 0 0 0 6.292 1.843z" fill="#98A2B3"/>
</svg>
